<svg xmlns="http://www.w3.org/2000/svg" viewBox="28 140 456 232" width="456" height="232">
  <title>Flux</title>
  <defs>
    <linearGradient id="heat" gradientUnits="userSpaceOnUse" x1="48" y1="0" x2="464" y2="0">
      <stop offset="0" stop-color="#F97316"/>
      <stop offset="1" stop-color="#E11D48"/>
    </linearGradient>
  </defs>
  <g fill="none" stroke="url(#heat)" stroke-width="18" stroke-linecap="round">
    <path d="M48 164 C150 164 196 234 256 234"/>
    <path d="M256 234 C316 234 362 164 464 164" stroke-dasharray="0 30" stroke-dashoffset="2"/>
    <path d="M48 210 C150 210 196 245 256 245"/>
    <path d="M256 245 C316 245 362 210 464 210" stroke-dasharray="0 30" stroke-dashoffset="2"/>
    <path d="M48 256 C150 256 196 256 256 256"/>
    <path d="M256 256 C316 256 362 256 464 256" stroke-dasharray="0 30" stroke-dashoffset="2"/>
    <path d="M48 302 C150 302 196 267 256 267"/>
    <path d="M256 267 C316 267 362 302 464 302" stroke-dasharray="0 30" stroke-dashoffset="2"/>
    <path d="M48 348 C150 348 196 278 256 278"/>
    <path d="M256 278 C316 278 362 348 464 348" stroke-dasharray="0 30" stroke-dashoffset="2"/>
  </g>
</svg>
